<?xml version="1.0" standalone="no"?>
<!DOCTYPE svg PUBLIC "-//W3C//DTD SVG 20010904//EN"
 "http://www.w3.org/TR/2001/REC-SVG-20010904/DTD/svg10.dtd">
<svg version="1.0" xmlns="http://www.w3.org/2000/svg"
 width="234.000000pt" height="141.000000pt" viewBox="0 0 234.000000 141.000000"
 preserveAspectRatio="xMidYMid meet">

<g transform="translate(0.000000,141.000000) scale(0.100000,-0.100000)"
fill="#000000" stroke="none">
<path d="M774 1335 c-4 -10 -13 -13 -25 -10 -26 9 -109 -73 -109 -108 0 -17
-7 -28 -20 -32 -11 -3 -20 -15 -20 -26 0 -10 -4 -19 -10 -19 -27 0 -1 -98 32
-121 5 -3 -10 -22 -34 -42 -24 -19 -61 -52 -82 -71 -22 -20 -42 -36 -45 -36
-17 -1 -93 -78 -87 -88 9 -15 74 37 248 201 19 18 21 18 66 -21 26 -21 58 -42
70 -46 13 -4 22 -11 20 -15 -2 -4 -66 -65 -143 -136 -77 -70 -141 -134 -143
-141 -3 -12 111 -14 682 -14 403 0 686 4 686 9 0 5 -39 44 -87 88 -49 43 -90
81 -93 84 -3 3 -35 31 -72 62 -46 39 -79 58 -105 62 -77 12 -110 26 -173 72
-81 59 -100 80 -100 110 0 23 23 32 35 13 3 -5 11 -10 17 -10 6 0 4 8 -5 18
-19 21 -22 48 -7 57 12 8 70 -25 70 -40 0 -14 38 -37 44 -27 3 5 -15 25 -39
46 -34 28 -45 44 -45 66 0 45 16 44 47 -1 42 -61 66 -85 71 -70 2 7 -7 25 -21
39 -31 34 -60 90 -52 102 11 18 45 11 45 -8 0 -27 29 -49 74 -58 25 -4 40 -13
43 -25 3 -11 9 -19 13 -19 4 0 5 -11 3 -24 -6 -28 14 -69 28 -61 5 4 9 -2 9
-12 1 -24 24 -53 42 -53 9 0 21 -7 29 -16 7 -9 22 -14 36 -11 16 3 27 -3 40
-22 27 -42 114 -119 170 -151 61 -35 63 -35 63 -15 0 8 -19 24 -42 36 -101 50
-203 148 -179 172 17 17 13 52 -8 71 -10 9 -21 30 -24 46 -4 17 -15 31 -27 35
-13 4 -20 15 -20 30 0 15 -10 31 -23 40 -13 8 -29 26 -35 40 -6 14 -18 25 -27
25 -8 0 -24 9 -35 20 -21 21 -110 29 -110 10 0 -5 -12 -10 -27 -10 -28 -1 -63
-20 -63 -35 0 -4 -11 -16 -25 -27 -14 -11 -25 -29 -25 -40 0 -11 -13 -37 -30
-58 -35 -45 -37 -73 -9 -120 l22 -35 -54 -47 -54 -47 -33 32 c-33 32 -34 38
-17 93 5 15 0 27 -13 40 -11 11 -23 31 -27 46 -4 15 -16 30 -26 33 -10 4 -19
15 -19 27 0 11 -13 33 -30 48 -16 15 -30 33 -30 39 0 6 -4 11 -9 11 -5 0 -22
11 -38 24 -37 30 -120 44 -129 21z m696 -50 c5 -14 15 -25 21 -25 7 0 10 -3 7
-6 -3 -3 -23 -2 -43 2 -39 7 -57 30 -34 45 24 15 39 10 49 -16z m-710 -17 c11
-23 27 -35 60 -46 54 -17 71 -38 64 -74 -4 -21 1 -33 19 -50 13 -13 27 -33 31
-45 4 -13 15 -23 25 -23 10 0 24 -7 31 -15 7 -8 25 -15 41 -15 16 0 29 -4 29
-9 0 -21 88 -105 155 -147 41 -25 75 -49 75 -53 0 -4 -32 -38 -71 -76 l-70
-70 -32 36 c-198 222 -198 222 -289 234 -50 6 -91 31 -175 103 -41 35 -53 51
-53 73 0 29 0 29 25 13 23 -15 25 -15 25 0 0 9 -4 16 -9 16 -16 0 -20 28 -7
46 13 17 17 15 57 -24 24 -23 48 -42 52 -42 14 0 2 23 -18 34 -45 26 -77 89
-55 110 8 8 17 4 31 -14 10 -14 28 -36 39 -50 11 -14 20 -28 20 -32 0 -9 30
-11 30 -3 0 3 -18 28 -40 56 -43 54 -47 68 -28 87 17 17 21 15 38 -20z m76 17
c-3 -8 2 -19 12 -24 22 -12 8 -26 -15 -15 -10 4 -25 8 -33 8 -8 1 -16 11 -18
24 -3 19 1 22 28 22 24 0 31 -4 26 -15z m734 -25 c0 -19 -28 -10 -33 10 -4 17
-2 18 14 9 10 -5 19 -14 19 -19z m-650 10 c8 -5 11 -12 8 -16 -4 -3 -14 1 -23
10 -18 17 -9 21 15 6z m60 -60 c16 -30 -4 -63 -33 -54 -31 9 -31 9 -11 43 21
36 29 38 44 11z m638 -11 c4 -34 -16 -49 -46 -34 -20 11 -21 14 -7 25 8 7 15
19 15 27 0 26 35 9 38 -18z m52 -65 c0 -20 -41 -45 -56 -33 -9 7 -7 15 9 33
22 24 47 24 47 0z m-642 -11 c2 -15 -4 -23 -18 -28 -33 -11 -48 10 -25 35 22
24 39 21 43 -7z m40 -66 c2 -10 -3 -17 -12 -17 -10 0 -16 9 -16 21 0 24 23 21
28 -4z m639 6 c2 -6 -3 -13 -12 -16 -10 -5 -15 0 -15 14 0 21 21 22 27 2z
m-358 -121 c13 -12 35 -25 47 -28 22 -6 20 -9 -29 -54 -49 -45 -53 -47 -75
-32 l-23 15 36 37 c34 35 35 37 17 53 -10 9 -23 17 -29 17 -11 0 -37 -48 -38
-70 0 -8 -5 -15 -10 -14 -22 2 -75 29 -75 38 0 6 24 31 53 57 l52 48 25 -22
c14 -12 36 -32 49 -45z m177 -142 l16 -40 64 0 c64 0 64 0 127 -57 34 -31 64
-61 66 -67 2 -6 -53 -7 -149 -3 -84 4 -223 7 -309 7 l-155 0 59 60 59 60 68 0
68 0 16 40 c11 27 22 40 35 40 13 0 24 -13 35 -40z m-609 13 c2 -6 -6 -13 -19
-15 -12 -2 -24 -11 -26 -20 -3 -15 4 -18 42 -18 31 0 48 5 54 16 8 15 14 11
44 -22 79 -88 100 -115 96 -119 -2 -3 -130 -2 -283 2 l-278 6 61 59 60 58 71
0 c56 0 71 3 71 15 0 8 -6 15 -14 15 -18 0 -29 17 -21 30 9 15 137 8 142 -7z"/>
<path d="M680 1060 c0 -5 5 -10 11 -10 5 0 7 5 4 10 -3 6 -8 10 -11 10 -2 0
-4 -4 -4 -10z"/>
<path d="M1310 1070 c0 -5 5 -10 11 -10 5 0 7 5 4 10 -3 6 -8 10 -11 10 -2 0
-4 -4 -4 -10z"/>
<path d="M641 919 c-13 -21 -17 -36 -10 -40 6 -3 -4 -22 -25 -44 -20 -21 -34
-40 -31 -43 5 -6 82 62 109 97 18 22 18 24 -2 43 l-21 21 -20 -34z"/>
<path d="M2181 723 c-51 -63 41 -141 99 -83 27 27 25 62 -3 88 -32 30 -71 28
-96 -5z m74 11 c50 -20 31 -104 -23 -104 -37 0 -52 17 -52 57 0 43 32 63 75
47z"/>
<path d="M2211 688 c0 -18 3 -27 6 -20 4 10 9 10 23 -3 18 -16 19 -16 16 7 -6
56 -47 70 -45 16z m29 12 c0 -5 -4 -10 -10 -10 -5 0 -10 5 -10 10 0 6 5 10 10
10 6 0 10 -4 10 -10z"/>
<path d="M1362 543 c-5 -10 -28 -78 -51 -150 -23 -73 -44 -140 -47 -148 -4
-10 0 -15 14 -15 15 0 27 13 41 45 19 44 21 45 65 45 l44 0 42 -125 42 -125
58 0 59 0 -45 128 c-25 70 -64 180 -87 245 l-41 117 -43 0 c-30 0 -45 -5 -51
-17z m37 -165 c1 -12 -6 -18 -19 -18 -23 0 -25 16 -9 57 l12 28 7 -25 c5 -14
8 -33 9 -42z"/>
<path d="M1644 546 c-63 -28 -83 -99 -43 -150 12 -15 42 -37 68 -49 53 -26 64
-52 27 -68 -21 -10 -31 -8 -60 9 -20 12 -36 20 -36 19 0 -1 -4 -16 -9 -34 l-9
-32 51 -10 c102 -21 182 22 182 97 0 52 -27 90 -80 113 -54 24 -60 33 -39 54
16 16 48 13 69 -6 17 -16 25 -9 25 21 0 24 -6 33 -26 40 -35 14 -83 12 -120
-4z"/>
<path d="M40 525 c0 -22 4 -25 40 -25 l40 0 0 -215 0 -215 55 0 55 0 0 215 0
215 35 0 c31 0 35 3 35 25 l0 25 -130 0 -130 0 0 -25z"/>
<path d="M320 390 l0 -160 105 0 c98 0 105 1 105 20 0 17 -7 20 -50 20 l-50 0
0 50 0 50 50 0 c43 0 50 3 50 20 0 17 -7 20 -50 20 l-50 0 0 50 0 50 50 0 c43
0 50 3 50 20 0 19 -7 20 -105 20 l-105 0 0 -160z"/>
<path d="M635 538 c-32 -97 -95 -296 -95 -302 0 -4 12 -6 27 -4 20 2 29 11 38
38 11 32 15 35 57 38 45 3 46 3 55 -35 l9 -38 92 -3 92 -3 1 58 c1 99 12 104
39 18 l24 -76 45 3 45 3 19 65 c10 36 22 69 27 74 5 4 11 -18 15 -50 11 -96 9
-94 70 -94 39 0 53 4 50 13 -2 6 -13 78 -25 160 l-22 147 -43 0 -43 0 -32 -90
c-18 -50 -34 -89 -37 -87 -2 2 -16 42 -32 88 l-28 84 -46 3 c-26 2 -47 1 -47
-1 0 -2 -9 -68 -20 -147 -11 -79 -20 -148 -20 -154 0 -26 -19 18 -65 152 l-52
147 -46 3 c-32 2 -49 -1 -52 -10z m44 -155 c1 -17 -5 -23 -19 -23 -23 0 -25
16 -9 57 10 26 12 27 19 8 5 -11 9 -30 9 -42z"/>
<path d="M1850 390 l0 -160 55 0 55 0 0 160 0 160 -55 0 -55 0 0 -160z"/>
<path d="M2075 538 c-14 -40 -95 -297 -95 -302 0 -4 12 -6 27 -4 20 2 29 11
38 38 11 32 15 35 57 38 45 3 46 3 55 -35 l9 -38 57 -3 c31 -2 57 1 57 5 0 4
-24 76 -53 158 l-54 150 -47 3 c-31 2 -48 -1 -51 -10z m44 -155 c1 -17 -5 -23
-19 -23 -23 0 -25 16 -9 57 10 26 12 27 19 8 5 -11 9 -30 9 -42z"/>
<path d="M1366 147 c-37 -27 2 -96 41 -71 23 15 28 34 8 34 -9 0 -14 -4 -10
-9 10 -17 -17 -24 -32 -8 -23 23 -9 50 22 45 28 -6 34 6 9 16 -20 8 -17 8 -38
-7z"/>
<path d="M340 130 c0 -11 4 -20 9 -20 5 0 12 -10 15 -22 l6 -23 15 25 c11 19
14 21 15 8 0 -10 4 -18 10 -18 8 0 3 57 -6 68 -1 2 -9 -9 -17 -25 l-15 -28
-11 28 c-12 32 -21 35 -21 7z"/>
<path d="M506 121 c-10 -18 -15 -38 -12 -44 3 -9 5 -9 5 1 1 15 33 16 49 0 17
-17 14 2 -7 41 l-18 35 -17 -33z"/>
<path d="M631 108 c1 -24 3 -35 6 -25 3 12 8 15 16 8 9 -7 13 0 14 25 3 28 0
34 -17 34 -17 0 -20 -6 -19 -42z m29 22 c0 -5 -4 -10 -10 -10 -5 0 -10 5 -10
10 0 6 5 10 10 10 6 0 10 -4 10 -10z"/>
<path d="M751 110 c1 -25 3 -37 6 -27 2 9 7 17 10 17 3 0 12 -8 19 -17 7 -10
14 -13 14 -7 0 6 -7 17 -15 24 -14 11 -14 15 2 34 17 20 17 20 0 6 -16 -12
-20 -12 -28 1 -6 9 -8 0 -8 -31z"/>
<path d="M880 110 c0 -35 3 -40 23 -39 16 1 18 2 5 6 -10 2 -18 11 -18 18 0 7
8 16 18 18 16 4 16 5 0 6 -10 0 -18 5 -18 10 0 5 8 12 18 14 13 4 11 5 -5 6
-20 1 -23 -4 -23 -39z"/>
<path d="M997 142 c6 -4 13 -23 16 -42 l4 -35 1 37 c1 20 8 39 15 41 6 3 -1 6
-18 6 -17 0 -25 -3 -18 -7z"/>
<path d="M1113 110 c0 -25 2 -35 4 -22 2 12 2 32 0 45 -2 12 -4 2 -4 -23z"/>
<path d="M1201 109 c2 -29 3 -35 6 -16 5 33 10 33 40 5 l23 -21 -1 39 c-2 32
-3 34 -6 10 l-5 -28 -29 28 -29 28 1 -45z"/>
<path d="M1671 108 c1 -24 4 -33 6 -20 2 12 11 22 19 22 8 0 14 9 14 20 0 13
-7 20 -20 20 -17 0 -20 -6 -19 -42z m29 22 c0 -5 -4 -10 -10 -10 -5 0 -10 5
-10 10 0 6 5 10 10 10 6 0 10 -4 10 -10z"/>
<path d="M1751 144 c-1 -14 20 -76 25 -71 11 11 33 77 25 77 -5 0 -12 -12 -16
-27 l-7 -28 -13 30 c-7 17 -14 25 -14 19z"/>
<path d="M1847 142 c6 -4 13 -23 16 -42 l4 -35 1 37 c1 20 8 39 15 41 6 3 -1
6 -18 6 -17 0 -25 -3 -18 -7z"/>
<path d="M2022 113 c-2 -35 1 -43 16 -43 11 0 13 3 5 8 -6 4 -13 23 -16 42 -4
33 -4 33 -5 -7z"/>
<path d="M2098 115 c6 -50 19 -52 24 -5 3 31 0 40 -12 40 -12 0 -15 -8 -12
-35z"/>
<path d="M2180 110 c0 -44 16 -52 44 -24 28 27 12 64 -26 64 -14 0 -18 -8 -18
-40z m44 14 c6 -17 -9 -44 -25 -44 -5 0 -9 14 -9 30 0 33 23 42 34 14z"/>
<path d="M331 84 c0 -11 3 -14 6 -6 3 7 2 16 -1 19 -3 4 -6 -2 -5 -13z"/>
</g>
</svg>
